<?xml version="1.0" encoding="UTF-8"?>
<svg id="Capa_2" data-name="Capa 2" xmlns="http://www.w3.org/2000/svg" viewBox="0 0 1748.71 474.68">
  <defs>
    <style>
      .cls-1 {
        fill: #00af9a;
      }

      .cls-2 {
        fill: none;
      }
    </style>
  </defs>
  <g id="Capa_1-2" data-name="Capa 1">
    <g>
      <rect class="cls-2" x="130.32" y="133.24" width="1488.08" height="208.2"/>
      <path class="cls-2" d="M1746.91,80.13h-97.01c.68,3.38,2.25,6.3,4.05,9,6.75,10.35,18.01,16.65,30.39,16.65s22.73-4.95,28.81-15.98h31.51c-8.1,25.43-33.76,43.44-60.32,43.44-37.36,0-65.95-29.03-65.95-66.17S1646.31,0,1684.12,0s64.6,28.81,64.6,65.05c0,4.95-.67,10.13-1.8,15.08Zm-62.57-52.67c-18.23,0-31.06,10.8-35.34,28.58h69.1c-2.93-18.01-15.53-28.58-33.76-28.58Z"/>
      <path class="cls-2" d="M128.52,80.13H31.51c.68,3.38,2.25,6.3,4.05,9,6.75,10.35,18.01,16.65,30.39,16.65s22.73-4.95,28.81-15.98h31.51c-8.1,25.43-33.76,43.44-60.32,43.44C28.59,133.25,0,104.21,0,67.08S27.91,0,65.72,0s64.6,28.81,64.6,65.05c0,4.95-.67,10.13-1.8,15.08ZM65.95,27.46c-18.23,0-31.06,10.8-35.34,28.58H99.71c-2.93-18.01-15.53-28.58-33.76-28.58Z"/>
      <path class="cls-2" d="M1746.91,421.56h-97.01c.68,3.38,2.25,6.3,4.05,9,6.75,10.35,18.01,16.65,30.39,16.65s22.73-4.95,28.81-15.98h31.51c-8.1,25.43-33.76,43.44-60.32,43.44-37.36,0-65.95-29.03-65.95-66.17s27.91-67.08,65.72-67.08,64.6,28.81,64.6,65.05c0,4.95-.67,10.13-1.8,15.08Zm-62.57-52.67c-18.23,0-31.06,10.8-35.34,28.58h69.1c-2.93-18.01-15.53-28.58-33.76-28.58Z"/>
      <path class="cls-2" d="M128.52,421.56H31.51c.68,3.38,2.25,6.3,4.05,9,6.75,10.35,18.01,16.65,30.39,16.65s22.73-4.95,28.81-15.98h31.51c-8.1,25.43-33.76,43.44-60.32,43.44C28.59,474.68,0,445.65,0,408.51s27.91-67.08,65.72-67.08,64.6,28.81,64.6,65.05c0,4.95-.67,10.13-1.8,15.08Zm-62.57-52.67c-18.23,0-31.06,10.8-35.34,28.58H99.71c-2.93-18.01-15.53-28.58-33.76-28.58Z"/>
      <rect class="cls-2" width="1748.71" height="133.25"/>
      <rect class="cls-2" y="341.43" width="1748.71" height="133.25"/>
      <rect class="cls-2" x="1618.4" width="130.32" height="474.68"/>
      <rect class="cls-2" width="130.32" height="474.68"/>
      <g>
        <path class="cls-1" d="M299.37,244.24h0c0,51.52-38.49,58.49-54.69,58.49s-32.18-5.63-42.31-18.46c-8.78-11.03-10.8-25.88-10.8-39.61v-67.97h15.75v67.75c0,25.43,9.23,44.12,37.36,44.12,10.35,0,18.46-2.7,26.11-9.91,10.8-10.35,12.83-22.51,12.83-36.91v-65.05h15.75v67.55Z"/>
        <path class="cls-1" d="M449.95,250.74h-97.01c.68,3.38,2.25,6.3,4.05,9,6.75,10.35,18.01,16.65,30.39,16.65s22.73-4.95,28.81-15.98h31.51c-8.1,25.43-33.76,43.44-60.32,43.44-37.36,0-65.95-29.03-65.95-66.17s27.91-67.08,65.72-67.08,64.6,28.81,64.6,65.05c0,4.95-.67,10.13-1.8,15.08Zm-62.57-52.67c-18.23,0-31.06,10.8-35.34,28.58h69.1c-2.93-18.01-15.53-28.58-33.76-28.58Z"/>
        <path class="cls-1" d="M548.1,299.8l-26.78-42.77-26.56,42.77h-35.56l44.34-64.37-38.71-60.54h33.54l22.96,37.59,22.73-37.59h33.54l-38.71,60.54,44.79,64.37h-35.56Z"/>
        <path class="cls-1" d="M663.57,303.85c-16.66,0-26.78-4.72-38.49-15.98v53.57h-29.93V174.89h27.46v14.63h.45c10.35-13.05,24.08-18.91,40.51-18.91,36.69,0,62.57,30.61,62.57,66.17s-25.88,67.07-62.57,67.07Zm-3.38-105.78c-21.61,0-36.91,18.23-36.91,39.16,0,15.53,7.43,29.03,21.83,35.56,4.5,2.25,9.45,3.6,14.63,3.6,21.16,0,36.46-18.91,36.46-39.16s-14.86-39.16-36.01-39.16Z"/>
        <path class="cls-1" d="M868.62,250.74h-97.01c.67,3.38,2.25,6.3,4.05,9,6.75,10.35,18.01,16.65,30.39,16.65s22.73-4.95,28.81-15.98h31.51c-8.1,25.43-33.76,43.44-60.32,43.44-37.36,0-65.95-29.03-65.95-66.17s27.91-67.08,65.72-67.08,64.6,28.81,64.6,65.05c0,4.95-.68,10.13-1.8,15.08Zm-62.57-52.67c-18.23,0-31.06,10.8-35.34,28.58h69.1c-2.93-18.01-15.53-28.58-33.76-28.58Z"/>
        <path class="cls-1" d="M921.3,229.58v70.22h-29.93v-124.92h27.46v11.03h.45c8.33-12.16,14.4-15.31,29.26-15.31v29.03c-19.58,.68-27.23,11.71-27.23,29.94Z"/>
        <path class="cls-1" d="M961.14,160.7v-27.46h29.93v27.46h-29.93Zm0,139.1v-124.92h29.93v124.92h-29.93Z"/>
        <path class="cls-1" d="M1138.73,250.74h-97.01c.68,3.38,2.25,6.3,4.05,9,6.75,10.35,18.01,16.65,30.39,16.65s22.73-4.95,28.81-15.98h31.51c-8.1,25.43-33.76,43.44-60.32,43.44-37.36,0-65.95-29.03-65.95-66.17s27.91-67.08,65.72-67.08,64.6,28.81,64.6,65.05c0,4.95-.67,10.13-1.8,15.08Zm-62.57-52.67c-18.23,0-31.06,10.8-35.34,28.58h69.1c-2.93-18.01-15.53-28.58-33.76-28.58Z"/>
        <path class="cls-1" d="M1240.47,299.8v-61.67c0-17.33-2.93-40.06-25.21-40.06-7.88,0-15.98,4.5-20.48,11.03-5.4,7.88-5.4,22.06-5.4,31.28v59.42h-29.93v-124.92h27.68v10.8c9.9-9.68,19.81-15.08,34.21-15.08s28.81,6.75,37.59,17.33c9.68,11.7,11.48,27.91,11.48,42.54v69.32h-29.93Z"/>
        <path class="cls-1" d="M1357.07,303.85c-36.91,0-66.4-30.39-66.4-67.07s29.71-66.17,66.17-66.17c29.26,0,53.57,18.01,62.8,45.69h-33.76c-6.53-11.71-15.08-18.23-29.03-18.23-22.28,0-36.24,17.78-36.24,39.16s15.3,39.16,37.59,39.16c12.16,0,21.38-7.2,27.69-17.33h33.76c-9.91,27.46-33.09,44.79-62.57,44.79Z"/>
        <path class="cls-1" d="M1438.33,160.7v-27.46h29.94v27.46h-29.94Zm0,139.1v-124.92h29.94v124.92h-29.94Z"/>
        <path class="cls-1" d="M1590.94,299.8v-15.53c-9.9,11.71-28.36,19.58-43.67,19.58-37.59,0-60.77-31.73-60.77-67.3s25.66-65.95,62.57-65.95c13.73,0,26.78,5.63,36.91,14.85,1.35,1.35,3.38,3.38,4.5,5.18h.45v-15.75h27.46v124.92h-27.46Zm-37.36-101.73c-22.28,0-37.14,18.46-37.14,39.84s15.76,38.49,37.14,38.49,36.46-18.01,36.46-39.39-14.4-38.94-36.46-38.94Z"/>
        <path class="cls-1" d="M146.08,190.86v94.75h29.49v14.17h-32.75c-6.9,0-12.5-5.59-12.5-12.5V133.24h15.76v43.45h29.49v14.17h-29.49Z"/>
      </g>
    </g>
  </g>
</svg>